<?xml version="1.0" standalone="no"?>
<!DOCTYPE svg PUBLIC "-//W3C//DTD SVG 20010904//EN"
 "http://www.w3.org/TR/2001/REC-SVG-20010904/DTD/svg10.dtd">
<svg version="1.0" xmlns="http://www.w3.org/2000/svg"
 width="256.000000pt" height="256.000000pt" viewBox="0 0 256.000000 256.000000"
 preserveAspectRatio="xMidYMid meet">
<metadata>
Created by potrace 1.14, written by Peter Selinger 2001-2017
</metadata>
<g transform="translate(0.000000,256.000000) scale(0.100000,-0.100000)"
fill="#000000" stroke="none">
<path d="M0 1280 l0 -1280 1280 0 1280 0 0 1280 0 1280 -1280 0 -1280 0 0
-1280z m2347 264 c69 -34 103 -79 103 -136 0 -39 -34 -88 -60 -88 -6 0 5 -15
24 -34 90 -84 11 -205 -153 -236 -115 -22 -265 -8 -342 31 -63 32 -117 112
-88 130 8 5 57 9 109 9 78 0 100 -4 125 -20 52 -35 145 -22 145 20 0 28 -38
50 -87 50 l-43 0 0 39 0 38 51 6 c28 4 57 12 65 18 17 14 18 41 2 57 -17 17
-113 15 -132 -3 -11 -12 -41 -15 -136 -15 l-121 0 23 42 c55 98 138 130 330
125 116 -3 131 -6 185 -33z m-1562 -225 c88 -139 161 -255 163 -260 2 -5 -47
-9 -110 -9 l-113 1 -27 44 -27 45 -156 0 -155 0 -28 -45 -27 -45 -113 0 c-63
0 -112 4 -110 8 2 5 75 122 163 260 l160 251 110 0 110 0 160 -250z m455 146
l0 -105 135 0 135 0 0 105 0 105 110 0 110 0 0 -260 0 -260 -110 0 -110 0 0
105 0 105 -135 0 -135 0 0 -105 0 -105 -115 0 -115 0 0 260 0 260 115 0 115 0
0 -105z"/>
<path d="M471 1339 c-23 -39 -41 -73 -41 -75 0 -2 38 -4 85 -4 47 0 85 2 85 4
0 6 -81 146 -85 146 -2 0 -22 -32 -44 -71z"/>
</g>
</svg>
